<svg width="21" height="20" viewBox="0 0 21 20" fill="none" xmlns="http://www.w3.org/2000/svg">
<path d="M15.6862 0.833496H5.6862C4.58154 0.834819 3.5225 1.27423 2.74138 2.05535C1.96027 2.83646 1.52085 3.8955 1.51953 5.00016V11.6668C1.52074 12.627 1.85294 13.5574 2.46013 14.3012C3.06732 15.045 3.91238 15.5567 4.85286 15.7502V18.3335C4.85284 18.4844 4.89378 18.6324 4.9713 18.7618C5.04883 18.8913 5.16004 18.9972 5.29306 19.0684C5.42609 19.1396 5.57594 19.1733 5.72663 19.166C5.87732 19.1587 6.0232 19.1106 6.1487 19.0268L10.9362 15.8335H15.6862C16.7909 15.8322 17.8499 15.3928 18.631 14.6116C19.4121 13.8305 19.8515 12.7715 19.8529 11.6668V5.00016C19.8515 3.8955 19.4121 2.83646 18.631 2.05535C17.8499 1.27423 16.7909 0.834819 15.6862 0.833496ZM14.0195 10.8335H7.35286C7.13185 10.8335 6.91989 10.7457 6.76361 10.5894C6.60733 10.4331 6.51953 10.2212 6.51953 10.0002C6.51953 9.77915 6.60733 9.56719 6.76361 9.41091C6.91989 9.25463 7.13185 9.16683 7.35286 9.16683H14.0195C14.2405 9.16683 14.4525 9.25463 14.6088 9.41091C14.7651 9.56719 14.8529 9.77915 14.8529 10.0002C14.8529 10.2212 14.7651 10.4331 14.6088 10.5894C14.4525 10.7457 14.2405 10.8335 14.0195 10.8335ZM15.6862 7.50016H5.6862C5.46518 7.50016 5.25322 7.41236 5.09694 7.25608C4.94066 7.0998 4.85286 6.88784 4.85286 6.66683C4.85286 6.44582 4.94066 6.23385 5.09694 6.07757C5.25322 5.92129 5.46518 5.8335 5.6862 5.8335H15.6862C15.9072 5.8335 16.1192 5.92129 16.2755 6.07757C16.4317 6.23385 16.5195 6.44582 16.5195 6.66683C16.5195 6.88784 16.4317 7.0998 16.2755 7.25608C16.1192 7.41236 15.9072 7.50016 15.6862 7.50016Z" fill="#2B54E2"/>
</svg>
