<svg width="134" height="24" viewBox="0 0 134 24" fill="none" xmlns="http://www.w3.org/2000/svg">
<g clip-path="url(#clip0_830_2244)">
<path d="M16.2159 23.2532C13.748 24.7367 10.5403 23.9364 9.06054 21.4573L1.0388 8.05189C-0.440938 5.57772 0.36221 2.36665 2.83006 0.878244C5.29792 -0.605286 8.50078 0.19504 9.98538 2.6741L18.0071 16.0795C19.4869 18.5537 18.6886 21.7648 16.2159 23.2532Z" fill="#2B54E2"/>
<path d="M21.1571 0.136257C24.4525 0.126497 27.1345 2.81052 27.1345 6.1143C27.1345 7.32943 26.7743 8.46159 26.1512 9.40344C25.8008 9.94024 25.7716 10.6283 26.088 11.1847C26.4043 11.7459 27.0079 12.0728 27.6456 12.0484C27.7235 12.0484 27.8062 12.0484 27.8841 12.0484C27.962 12.0484 28.0447 12.0484 28.1226 12.0484C28.7651 12.0728 29.3638 11.7459 29.6802 11.1847C29.9966 10.6283 29.9723 9.94024 29.6169 9.40344C28.9939 8.46159 28.6337 7.32943 28.6337 6.1143C28.6337 2.81052 31.3157 0.131377 34.6111 0.136257C37.9064 0.141137 40.5544 2.8154 40.5544 6.1143C40.5544 9.4132 37.8821 12.0923 34.5916 12.0923C34.5088 12.0923 34.4261 12.0923 34.3433 12.0875C33.7057 12.0631 33.107 12.3949 32.7906 12.9512C32.4742 13.5075 32.4985 14.1956 32.8539 14.7324C33.4818 15.684 33.8469 16.8308 33.8371 18.0606C33.8176 21.3546 31.16 23.9996 27.8744 23.9996C24.5839 23.9996 21.9116 21.3254 21.9116 18.0216C21.9116 16.8064 22.2718 15.6792 22.8948 14.7373C23.2502 14.2005 23.2745 13.5124 22.963 12.9512C22.6466 12.3949 22.0479 12.0582 21.4102 12.0875C21.3275 12.0875 21.2447 12.0923 21.162 12.0923C17.8715 12.0923 15.1992 9.4132 15.1992 6.1143C15.1992 2.8154 17.8715 0.146017 21.1571 0.136257Z" fill="#2B54E2"/>
<path d="M54.3259 3.90403H49.8672V0H54.3259V3.90403ZM54.1945 23.4681H49.9694V6.7198H54.1945V23.4681Z" fill="#141F3C"/>
<path d="M58.8838 23.4683V6.71999H62.5831L62.9774 8.34016H63.177C63.7075 7.80823 64.4474 7.33975 65.4063 6.93471C66.3652 6.52479 67.3923 6.31982 68.4923 6.31982C69.9867 6.31982 71.3253 6.62727 72.5032 7.24703C73.6812 7.86679 74.6109 8.77936 75.2923 9.99449C75.9738 11.2096 76.3145 12.6639 76.3145 14.3621V23.4634H72.0554V14.8648C72.0554 13.4984 71.6368 12.415 70.7996 11.6195C69.9624 10.8241 68.9304 10.4288 67.6941 10.4288C66.4577 10.4288 65.3333 10.8387 64.4425 11.6537C63.5518 12.4687 63.104 13.5423 63.104 14.8648V23.4731H58.8789L58.8838 23.4683Z" fill="#141F3C"/>
<path d="M89.3922 23.468H83.6484L78.6641 6.71973H83.186L86.3889 17.8072H87.1482L90.5507 6.71973H95.6032L99.0056 17.8072H99.7649L102.968 6.71973H107.49L102.505 23.468H96.7617L93.4615 12.6099H92.7021L89.4019 23.468H89.3922Z" fill="#141F3C"/>
<path d="M114.65 3.90403H110.191V0H114.65V3.90403ZM114.519 23.4681H110.294V6.7198H114.519V23.4681Z" fill="#141F3C"/>
<path d="M119.899 22.3263C118.512 21.3015 117.82 19.9839 117.82 18.3686H122.011C122.011 18.9884 122.367 19.491 123.082 19.8766C123.798 20.2621 124.781 20.4573 126.037 20.4573C127.293 20.4573 128.193 20.3011 128.811 19.9937C129.429 19.6862 129.736 19.2763 129.736 18.7688C129.736 18.2173 129.527 17.8074 129.108 17.5439C128.69 17.2804 127.998 17.0705 127.03 16.9144L124.221 16.4849C122.196 16.1531 120.668 15.587 119.631 14.7818C118.594 13.9766 118.078 12.8688 118.078 11.4536C118.078 9.95545 118.745 8.7208 120.074 7.76432C121.408 6.80295 123.291 6.32471 125.735 6.32471C127.341 6.32471 128.743 6.56383 129.945 7.03719C131.143 7.51055 132.063 8.16448 132.7 8.9892C133.338 9.81881 133.659 10.7265 133.659 11.722H129.464C129.42 11.1267 129.06 10.6484 128.393 10.2824C127.721 9.91641 126.835 9.73585 125.735 9.73585C124.635 9.73585 123.754 9.88713 123.16 10.1897C122.566 10.4923 122.269 10.9168 122.269 11.4536C122.269 11.9514 122.479 12.332 122.897 12.6004C123.316 12.8688 123.953 13.064 124.81 13.1763L127.716 13.6057C129.765 13.9327 131.303 14.5085 132.34 15.3332C133.377 16.158 133.893 17.2804 133.893 18.7053C133.893 20.2182 133.221 21.4577 131.878 22.4239C130.534 23.3902 128.587 23.8733 126.032 23.8733C123.326 23.8733 121.276 23.3609 119.889 22.3361L119.899 22.3263Z" fill="#141F3C"/>
</g>
<defs>
<clipPath id="clip0_830_2244">
<rect width="133.6" height="24" fill="white" transform="translate(0.300781)"/>
</clipPath>
</defs>
</svg>
