<svg width="32" height="32" viewBox="0 0 32 32" fill="none" xmlns="http://www.w3.org/2000/svg">
<path d="M29.8978 8.23677C29.8595 7.39492 29.8595 6.59133 29.8595 5.78774C29.8595 5.13722 29.3621 4.63976 28.7115 4.63976C23.9283 4.63976 20.293 3.26218 17.27 0.315695C16.8108 -0.105232 16.122 -0.105232 15.6628 0.315695C12.6398 3.26218 9.00452 4.63976 4.22126 4.63976C3.57074 4.63976 3.07328 5.13722 3.07328 5.78774C3.07328 6.59133 3.07328 7.39492 3.03501 8.23677C2.88195 16.2726 2.65235 27.2933 16.0837 31.9235L16.4664 32L16.8491 31.9235C30.2422 27.2933 30.0509 16.3109 29.8978 8.23677ZM15.548 19.3722C15.3184 19.5635 15.0506 19.6783 14.7444 19.6783H14.7062C14.4 19.6783 14.0939 19.5253 13.9026 19.2957L10.3438 15.3543L12.0658 13.8236L14.8592 16.9232L21.0583 11.0302L22.6272 12.7139L15.548 19.3722Z" fill="#2B54E2"/>
</svg>
