<svg width="32" height="32" viewBox="0 0 32 32" fill="none" xmlns="http://www.w3.org/2000/svg">
<g clip-path="url(#clip0_837_11166)">
<path d="M32 12.2344C32 5.48828 26.5117 0 19.7656 0C14.4309 0 9.8833 3.43262 8.21387 8.20483C6.49072 8.80273 4.91113 9.78687 3.5835 11.1145C1.27271 13.4253 0 16.4976 0 19.7656C0 23.0334 1.27271 26.106 3.5835 28.4165C5.89429 30.7273 8.96655 31.9998 12.2344 31.9998C15.5022 31.9998 18.5745 30.7273 20.8853 28.4165C22.2339 27.0681 23.2007 25.4805 23.7869 23.7891C28.5635 22.1221 32 17.5723 32 12.2344ZM11.2466 30.0781C10.0251 29.9634 8.84888 29.6362 7.76074 29.1145L13.9048 22.9709C14.907 23.52 15.9939 23.9326 17.1406 24.1843L11.2466 30.0781ZM15.2966 21.5791L21.5798 15.2961C22.1079 16.4031 22.4292 17.5847 22.5422 18.7825L18.7783 22.5464C17.5422 22.429 16.3687 22.0938 15.2966 21.5791ZM11.4163 18.3591L18.3635 11.4119C18.7837 11.7214 19.1836 12.0647 19.5596 12.4404C19.9375 12.8186 20.2803 13.2188 20.5874 13.637L13.6406 20.5835C12.7915 19.959 12.0408 19.2083 11.4163 18.3591ZM1.92163 20.7534L7.81567 14.8594C8.06738 16.0059 8.47974 17.0928 9.02881 18.095L2.88501 24.2388C2.36353 23.1509 2.03638 21.9746 1.92163 20.7534ZM10.4678 9.55542L9.55786 10.4656C9.60181 10.2112 9.65503 9.96021 9.71729 9.7124C9.96484 9.65112 10.2151 9.59863 10.4678 9.55542ZM9.45361 13.2214L13.2222 9.45288C14.4434 9.56763 15.6194 9.89478 16.7075 10.4163L10.4207 16.7031C9.90601 15.6311 9.57104 14.4578 9.45361 13.2214ZM22.4365 21.5398C22.3936 21.7896 22.3413 22.0381 22.2798 22.2847C22.0347 22.3459 21.7861 22.3984 21.5344 22.4421L22.4365 21.5398ZM4.90918 12.4402C5.72534 11.6243 6.65381 10.9617 7.65942 10.4658C7.57544 11.0435 7.53125 11.6338 7.53125 12.2344C7.53125 12.3193 7.53271 12.4043 7.53442 12.489L2.02441 17.999C2.38208 15.9038 3.37549 13.9741 4.90918 12.4402ZM3.88062 25.8948L10.0781 19.6973C10.7214 20.5303 11.4695 21.2783 12.3025 21.9216L6.10474 28.1191C5.68481 27.8096 5.28491 27.4666 4.90918 27.0908C4.5332 26.7148 4.19019 26.3149 3.88062 25.8948ZM19.5596 27.0908C18.0259 28.6243 16.0959 29.6177 14.0007 29.9756L19.511 24.4656C19.5957 24.4673 19.6804 24.4688 19.7656 24.4688C20.3645 24.4688 20.9531 24.4248 21.5291 24.3413C21.041 25.3347 20.3848 26.2656 19.5596 27.0908Z" fill="#2B54E2"/>
</g>
<defs>
<clipPath id="clip0_837_11166">
<rect width="32" height="32" fill="white"/>
</clipPath>
</defs>
</svg>
