<svg width="32" height="32" viewBox="0 0 32 32" fill="none" xmlns="http://www.w3.org/2000/svg">
<path d="M16 8.00122C11.588 8.00122 8 11.589 8 16.0008C8 20.4126 11.588 24.0004 16 24.0004C20.412 24.0004 24 20.4126 24 16.0008C24 11.589 20.412 8.00122 16 8.00122ZM20.3107 14.5755L15.9773 19.242C15.46 19.7979 14.588 19.8086 14.0573 19.2766L11.724 16.9434C11.2027 16.4221 11.2027 15.5795 11.724 15.0582C12.2453 14.5369 13.088 14.5369 13.6093 15.0582L14.964 16.4128L18.356 12.7596C18.8573 12.2197 19.7013 12.189 20.2413 12.6903C20.78 13.1916 20.8107 14.0356 20.3107 14.5755Z" fill="#2B54E2"/>
<path d="M2 16.0008C2 8.28258 8.28 2.00157 16 2.00157C18.772 2.00157 21.4067 2.81086 23.6427 4.27745L21.6267 6.29468C20.9973 6.92132 21.4413 8.00126 22.3333 8.00126H28.3333C28.8853 8.00126 29.3333 7.55328 29.3333 7.00131V1.00163C29.3333 0.115006 28.2587 -0.336971 27.6267 0.294996L25.0747 2.84686C22.4467 1.02163 19.312 0.00167832 16 0.00167832C7.17733 0.00167832 0 7.17864 0 16.0008C0 17.5648 0.230667 19.1193 0.684 20.6219C0.842667 21.1486 1.396 21.4499 1.93067 21.2912C2.45867 21.1312 2.75867 20.5739 2.59867 20.0446C2.20133 18.7287 2 17.3688 2 16.0008Z" fill="#2B54E2"/>
<path d="M31.3173 11.3798C31.1573 10.8505 30.604 10.5492 30.0707 10.7105C29.5427 10.8705 29.2427 11.4278 29.4027 11.9571C29.8 13.2731 30.0013 14.633 30.0013 16.0009C30.0013 23.7192 23.7213 30.0002 16.0013 30.0002C13.2347 30.0002 10.604 29.1949 8.37202 27.7336L10.3787 25.7044C11.0027 25.0724 10.5547 24.0005 9.66802 24.0005H3.66802C3.40135 24.0005 3.14402 24.1071 2.95735 24.2978C2.77068 24.4885 2.66535 24.7444 2.66802 25.0111L2.73468 31.0108C2.74268 31.8987 3.82668 32.3307 4.44535 31.7027L6.94935 29.1709C9.57202 30.9868 12.6987 32.0001 16.0013 32.0001C24.824 32.0001 32.0013 24.8231 32.0013 16.0009C32.0013 14.437 31.7707 12.8824 31.3173 11.3798Z" fill="#2B54E2"/>
</svg>
